<svg xmlns="http://www.w3.org/2000/svg" width="18" height="18" viewBox="0 0 18 18">
  <path id="Shape" d="M0,9a9,9,0,1,1,9,9A9.01,9.01,0,0,1,0,9Zm9,7.616a7.585,7.585,0,0,0,5.091-1.956,4,4,0,0,0-1.313-.692c-.1-.038-.212-.075-.348-.121l-.356-.12c-1.288-.435-1.868-.786-2.117-1.608a1.745,1.745,0,0,1-.051-.206,2.195,2.195,0,0,1,.128-1.29,1.957,1.957,0,0,1,.544-.734,2.6,2.6,0,0,0,.962-2.119A2.615,2.615,0,0,0,9,5.077,2.587,2.587,0,0,0,6.461,7.77a2.624,2.624,0,0,0,.924,2.1,2.1,2.1,0,0,1,.526.642,2.047,2.047,0,0,1,.183,1.419,1.067,1.067,0,0,1-.041.157c-.218.81-.782,1.157-2.019,1.58l-.411.139c-.16.054-.285.1-.4.141a3.984,3.984,0,0,0-1.311.712A7.586,7.586,0,0,0,9,16.616ZM12.923,7.77a3.99,3.99,0,0,1-1.438,3.163.615.615,0,0,0-.179.235.857.857,0,0,0-.04.486.428.428,0,0,0,.012.051c.071.234.376.418,1.238.71l.355.118c.146.049.263.09.376.13a5.209,5.209,0,0,1,1.787.978,7.616,7.616,0,1,0-12.069,0,5.241,5.241,0,0,1,1.774-.993c.132-.049.268-.1.438-.154l.409-.138c.8-.273,1.081-.447,1.149-.689,0,.006,0-.005.006-.031a.709.709,0,0,0-.054-.48.835.835,0,0,0-.219-.25A4.012,4.012,0,0,1,5.077,7.77,3.969,3.969,0,0,1,9,3.693,4,4,0,0,1,12.923,7.77Z" fill="#141124"/>
</svg>
