<svg xmlns="http://www.w3.org/2000/svg" width="18" height="15.861" viewBox="0 0 18 15.861">
  <path id="Fill_1161" data-name="Fill 1161" d="M9,15.861a3.288,3.288,0,0,1-1.753-.7A16.729,16.729,0,0,1,5.36,13.614C4.236,12.572,2.9,11.171,1.385,9.448A5.775,5.775,0,0,1,1.612,1.7,5.374,5.374,0,0,1,9,1.269a5.379,5.379,0,0,1,7.39.427,5.775,5.775,0,0,1,.227,7.753c-1.514,1.722-2.851,3.124-3.975,4.166a16.729,16.729,0,0,1-1.886,1.544A3.288,3.288,0,0,1,9,15.861ZM5.534,1.6h0A3.907,3.907,0,0,0,2.693,2.825a4.13,4.13,0,0,0-.182,5.544c1.481,1.685,2.781,3.048,3.864,4.05a15.123,15.123,0,0,0,1.7,1.4A2.3,2.3,0,0,0,9,14.264a2.3,2.3,0,0,0,.924-.446,15.123,15.123,0,0,0,1.7-1.4c1.083-1,2.383-2.365,3.864-4.05a4.131,4.131,0,0,0-.182-5.544,3.892,3.892,0,0,0-5.351-.31L9,3.315l-.957-.8A3.925,3.925,0,0,0,5.535,1.6Z" transform="translate(0 0)"/>
</svg>
