<svg xmlns="http://www.w3.org/2000/svg" width="19" height="17.041" viewBox="0 0 19 17.041">
  <path id="Fill_1184" data-name="Fill 1184" d="M14.25,17.042H4.75a2.378,2.378,0,0,1-2.375-2.375V6.578l-1.118.813a.786.786,0,0,1-.465.152A.792.792,0,0,1,.326,6.11L8.1.455a2.376,2.376,0,0,1,2.794,0L18.673,6.11a.791.791,0,0,1,.175,1.106.8.8,0,0,1-.641.326.783.783,0,0,1-.465-.152l-1.118-.813v8.088A2.378,2.378,0,0,1,14.25,17.042ZM8.708,8.334h1.583a2.377,2.377,0,0,1,2.375,2.374v4.75H14.25a.793.793,0,0,0,.792-.792V5.427L9.966,1.734a.793.793,0,0,0-.932,0L3.958,5.427v9.239a.793.793,0,0,0,.792.792H6.333v-4.75A2.377,2.377,0,0,1,8.708,8.334Zm0,1.583a.792.792,0,0,0-.792.791v4.75h3.167v-4.75a.792.792,0,0,0-.792-.791Z" transform="translate(0 0)"/>
</svg>
