<svg xmlns="http://www.w3.org/2000/svg" width="36" height="36" viewBox="0 0 36 36">
  <g id="Group_9" data-name="Group 9" transform="translate(-152 -879)">
    <circle id="Ellipse_53" data-name="Ellipse 53" cx="18" cy="18" r="18" transform="translate(152 879)" fill="#03bee0"/>
    <g id="Fill_997" data-name="Fill 997" transform="translate(163 889)">
      <path id="Fill_997-2" data-name="Fill 997" d="M7.182,15.429a1.983,1.983,0,0,1-.946-.241L.686,12.161a1.316,1.316,0,0,1,0-2.311l.9-.49-.9-.49a1.316,1.316,0,0,1,0-2.311l.9-.49-.9-.49a1.316,1.316,0,0,1,0-2.311L6.235.241a1.975,1.975,0,0,1,1.892,0l5.55,3.027a1.316,1.316,0,0,1,0,2.311l-.9.49.9.49a1.316,1.316,0,0,1,0,2.311l-.9.49.9.49a1.316,1.316,0,0,1,0,2.311l-5.55,3.027A1.979,1.979,0,0,1,7.182,15.429ZM2.5,10.109l-1.642.9,5.55,3.027a.658.658,0,0,0,.63,0l5.551-3.027-1.642-.9L7.669,11.9a1.974,1.974,0,0,1-1.892,0L2.5,10.109h0Zm0-3.29-1.642.9,5.55,3.027a.658.658,0,0,0,.63,0l5.551-3.027-1.642-.9L7.669,8.606a1.975,1.975,0,0,1-1.892,0Zm4.224-5.5a.661.661,0,0,0-.315.08L.857,4.423l5.55,3.028a.658.658,0,0,0,.63,0l5.551-3.028L7.038,1.4A.658.658,0,0,0,6.723,1.316Z" transform="translate(0 0)" fill="#fff"/>
    </g>
  </g>
</svg>
