<svg xmlns="http://www.w3.org/2000/svg" width="15.95" height="18" viewBox="0 0 15.95 18">
  <path id="Shape" d="M5.468,15.494v-.455H2.05A2.053,2.053,0,0,1,0,12.987V12.64a2.32,2.32,0,0,1,1.289-2.086,1.138,1.138,0,0,0,.629-.918L2.325,5.16a5.674,5.674,0,0,1,11.3,0l.407,4.476a1.133,1.133,0,0,0,.625.916A2.323,2.323,0,0,1,15.95,12.64v.347A2.053,2.053,0,0,1,13.9,15.038H10.481v.455a2.507,2.507,0,0,1-5.013,0Zm1.367,0a1.139,1.139,0,0,0,2.279,0v-.455H6.836Zm-1.765-13a4.3,4.3,0,0,0-1.385,2.79L3.279,9.76A2.492,2.492,0,0,1,1.9,11.775a.961.961,0,0,0-.536.865v.347a.684.684,0,0,0,.683.684H13.9a.685.685,0,0,0,.684-.684V12.64a.961.961,0,0,0-.534-.864A2.5,2.5,0,0,1,12.67,9.76l-.407-4.476a4.306,4.306,0,0,0-7.193-2.79Z" fill="#141124"/>
</svg>
