<svg xmlns="http://www.w3.org/2000/svg" width="17.997" height="10.805" viewBox="0 0 17.997 10.805">
  <path id="Fill_1159" data-name="Fill 1159" d="M9,10.8A10.585,10.585,0,0,1,3.377,9.232,11.5,11.5,0,0,1,.427,6.616a1.944,1.944,0,0,1,0-2.426,11.488,11.488,0,0,1,2.95-2.617A10.584,10.584,0,0,1,9,0a10.586,10.586,0,0,1,5.624,1.573,11.472,11.472,0,0,1,2.95,2.617,1.944,1.944,0,0,1,0,2.426,11.479,11.479,0,0,1-2.95,2.616A10.587,10.587,0,0,1,9,10.8ZM9,1.544A9.077,9.077,0,0,0,4.184,2.888a9.909,9.909,0,0,0-2.548,2.26.391.391,0,0,0,0,.509,9.909,9.909,0,0,0,2.548,2.26A9.077,9.077,0,0,0,9,9.261a9.078,9.078,0,0,0,4.816-1.345,9.893,9.893,0,0,0,2.548-2.26.391.391,0,0,0,0-.509,9.893,9.893,0,0,0-2.548-2.26A9.078,9.078,0,0,0,9,1.544ZM9,8.49A3.087,3.087,0,1,1,12.087,5.4,3.09,3.09,0,0,1,9,8.49ZM9,3.859A1.544,1.544,0,1,0,10.543,5.4,1.545,1.545,0,0,0,9,3.859Z" transform="translate(-0.002)"/>
</svg>
