<svg xmlns="http://www.w3.org/2000/svg" width="18" height="12.461" viewBox="0 0 18 12.461">
  <path id="Shape" d="M2.539,12.461A2.541,2.541,0,0,1,0,9.923V2.539A2.541,2.541,0,0,1,2.539,0h8.307a2.542,2.542,0,0,1,2.537,2.44l2.4-.961a1.616,1.616,0,0,1,2.1.9,1.6,1.6,0,0,1,.116.6v6.5a1.615,1.615,0,0,1-2.216,1.5l-2.4-.96a2.542,2.542,0,0,1-2.537,2.44ZM1.384,2.539V9.923a1.156,1.156,0,0,0,1.155,1.154h8.307A1.155,1.155,0,0,0,12,9.923V2.539a1.156,1.156,0,0,0-1.154-1.155H2.539A1.157,1.157,0,0,0,1.384,2.539ZM16.3,9.7a.231.231,0,0,0,.316-.214v-6.5a.231.231,0,0,0-.316-.214L13.385,3.93v4.6Z" fill="#141124"/>
</svg>
